
<svg version="1.0" xmlns="http://www.w3.org/2000/svg"
 width="2160.000000pt" height="2160.000000pt" viewBox="0 0 2160.000000 2160.000000"
 preserveAspectRatio="xMidYMid meet">

<g transform="translate(0.000000,2160.000000) scale(0.100000,-0.100000)"
fill="#000000" stroke="none">
<path d="M0 10800 l0 -10800 10800 0 10800 0 0 10800 0 10800 -10800 0 -10800
0 0 -10800z m3245 2822 c22 -11 54 -35 72 -54 54 -56 63 -91 63 -248 l0 -140
-75 0 -75 0 0 118 c0 131 -16 175 -65 188 -41 10 -106 -3 -129 -26 -21 -20
-21 -27 -24 -548 -2 -290 0 -708 3 -929 l7 -403 208 0 207 0 12 43 c20 65 96
212 148 285 91 128 212 230 349 294 58 27 64 32 51 47 -55 62 -104 195 -115
309 l-7 67 -97 3 -98 3 0 74 0 75 93 0 c50 0 97 4 103 8 5 4 15 31 22 60 16
71 55 151 102 211 81 102 231 141 348 91 100 -43 191 -171 222 -313 7 -31 18
-57 24 -56 6 1 53 1 104 0 l92 -1 0 -75 0 -75 -98 0 -98 0 -12 -90 c-14 -102
-38 -175 -82 -244 -17 -27 -30 -50 -28 -51 2 -2 30 -14 64 -28 235 -95 415
-322 490 -617 22 -89 27 -134 31 -294 l5 -189 59 -55 c87 -80 143 -204 184
-404 l5 -28 288 6 c306 7 411 0 556 -37 264 -67 430 -236 475 -483 7 -40 11
-334 11 -878 l0 -818 -77 0 -78 0 2 217 2 217 -161 163 c-89 90 -166 163 -170
163 -4 0 -8 -171 -8 -380 l0 -381 -75 3 -76 3 1 418 0 417 -305 0 -305 0 0
-420 0 -420 -75 0 -75 0 -2 423 -3 422 -62 7 c-35 4 -90 14 -124 22 -33 9 -63
16 -65 16 -2 0 -4 -200 -4 -445 l0 -445 -75 0 -74 0 -3 143 -3 142 -125 0
-125 0 -3 -142 -3 -143 -74 0 -74 0 -3 143 -3 142 -132 3 -133 3 0 -146 0
-145 -80 0 -80 0 0 146 0 145 -122 -1 c-173 -1 -172 -2 -194 14 -19 14 -19 39
-24 1028 l-5 1013 -310 0 -310 0 4 -1173 4 -1173 -79 3 -79 3 -2 875 c-1 481
-5 1155 -9 1498 l-6 622 -44 0 -44 0 0 80 0 80 46 0 46 0 -3 938 c-3 934 -3
937 18 982 46 99 144 154 263 147 40 -3 81 -12 105 -25z m12120 -1607 c124
-22 247 -87 327 -174 67 -73 125 -168 116 -192 -3 -8 -50 -34 -103 -59 -92
-41 -99 -43 -109 -26 -89 149 -186 213 -341 223 -176 13 -323 -75 -402 -239
-44 -91 -58 -159 -57 -283 0 -213 79 -366 225 -441 173 -87 414 -67 542 46
l37 32 0 84 0 84 -194 0 c-171 0 -195 2 -198 16 -2 9 -1 60 2 113 l5 96 310 0
310 0 3 -236 2 -237 -40 -51 c-80 -101 -197 -172 -347 -212 -109 -29 -296 -29
-406 0 -233 61 -409 228 -484 456 -37 115 -44 331 -15 456 51 213 180 384 361
478 144 75 289 96 456 66z m-7683 -617 l3 -593 290 -5 290 -5 0 -110 0 -110
-409 -3 c-226 -1 -413 1 -418 6 -9 9 -12 1388 -3 1403 4 5 60 9 126 9 l119 0
2 -592z m1943 477 l0 -110 -332 -3 -333 -2 0 -175 0 -175 278 -2 277 -3 3
-112 c3 -112 2 -113 -20 -113 -13 0 -138 -1 -278 -3 l-255 -2 -3 -187 -2 -188
337 -2 338 -3 0 -110 0 -110 -459 -3 c-361 -2 -461 0 -468 10 -9 16 -11 1392
-1 1401 3 4 212 6 462 5 l456 -3 0 -110z m1160 100 c85 -23 149 -61 210 -127
77 -83 98 -144 93 -273 -4 -107 -23 -161 -75 -216 l-25 -27 46 -46 c25 -26 57
-72 73 -104 26 -53 28 -65 28 -182 0 -115 -2 -130 -27 -183 -54 -115 -175
-210 -301 -237 -32 -6 -168 -9 -362 -8 l-310 3 -3 695 c-1 382 0 701 3 708 7
20 571 17 650 -3z m1810 -100 l0 -110 -332 -3 -333 -2 0 -175 0 -175 278 -2
277 -3 3 -112 3 -113 -278 -2 -278 -3 -3 -187 -2 -188 337 -2 338 -3 0 -110 0
-110 -465 0 -465 0 -3 695 c-1 382 0 701 3 708 3 10 101 12 462 10 l458 -3 0
-110z m1186 95 c124 -38 210 -117 271 -246 32 -67 33 -72 33 -204 0 -132 -1
-137 -32 -201 -32 -64 -81 -125 -135 -166 l-28 -21 121 -271 c66 -149 117
-276 114 -281 -4 -6 -59 -10 -131 -10 -108 0 -125 2 -135 18 -6 10 -57 121
-113 247 l-102 230 -142 3 -142 3 0 -238 c0 -131 -4 -244 -8 -251 -7 -9 -39
-12 -128 -10 l-119 3 -3 708 -2 707 309 0 c279 0 315 -2 372 -20z m3514 -95
l0 -110 -333 -3 -332 -2 2 -173 3 -172 275 -5 275 -5 3 -112 3 -113 -275 0
c-240 0 -275 -2 -280 -16 -9 -23 -7 -337 2 -351 6 -10 89 -13 338 -15 l329 -3
0 -110 0 -110 -459 -3 c-361 -2 -461 0 -468 10 -9 15 -11 1368 -2 1392 6 15
53 16 463 14 l456 -3 0 -110z m1170 101 c78 -20 134 -54 195 -115 192 -191
182 -531 -20 -690 l-48 -38 119 -268 c66 -148 117 -275 115 -282 -4 -11 -34
-13 -133 -11 l-128 3 -110 247 -110 248 -142 0 -143 0 -2 -247 -3 -248 -125 0
-125 0 -3 695 c-1 382 0 701 3 708 7 18 590 17 660 -2z m-10420 -2111 c86 -18
160 -54 214 -103 l42 -37 -57 -63 -56 -62 -36 31 c-20 18 -61 44 -92 58 -46
22 -69 26 -140 26 -73 0 -92 -4 -136 -27 -191 -100 -238 -377 -92 -542 112
-128 297 -141 443 -31 33 25 62 45 65 45 3 0 29 -24 59 -54 l52 -53 -52 -46
c-262 -230 -671 -135 -800 184 -27 68 -37 226 -19 307 19 88 75 185 141 247
126 116 287 157 464 120z m1197 -333 c81 -185 176 -403 212 -484 l65 -148 -92
0 -92 0 -46 113 -47 112 -228 0 -228 0 -47 -110 -48 -110 -87 -3 c-79 -3 -86
-1 -81 15 5 20 392 904 408 934 8 16 22 19 87 19 l77 0 147 -338z m3596 36
c72 -167 167 -385 211 -485 l80 -183 -92 0 -92 0 -46 113 -45 112 -229 0 -228
0 -47 -110 -47 -110 -87 -3 c-47 -1 -86 0 -86 4 0 6 314 729 391 902 l28 62
79 0 78 0 132 -302z m-2543 277 c94 -25 164 -78 208 -160 19 -34 22 -56 22
-145 0 -98 -2 -109 -30 -158 -36 -66 -71 -96 -155 -136 -63 -30 -71 -31 -222
-34 l-158 -4 0 -154 0 -154 -85 0 -85 0 0 480 0 480 223 0 c168 0 237 -4 282
-15z m695 -465 l0 -480 -85 0 -85 0 0 480 0 480 85 0 85 0 0 -480z m1060 400
l0 -80 -150 0 -150 0 0 -400 0 -400 -85 0 -85 0 0 400 0 399 -152 3 -153 3 -3
78 -3 77 391 0 390 0 0 -80z m1520 -325 l0 -405 250 0 250 0 0 -75 0 -75 -335
0 -335 0 0 480 0 480 85 0 85 0 0 -405z"/>
<path d="M4190 13009 c-14 -6 -38 -22 -54 -37 -33 -31 -86 -136 -86 -169 l0
-23 186 0 186 0 -7 32 c-20 88 -76 171 -132 194 -37 16 -58 17 -93 3z"/>
<path d="M4035 12583 c23 -177 103 -293 200 -293 91 0 178 124 192 277 l6 63
-202 0 -202 0 6 -47z"/>
<path d="M4190 12110 c-139 -17 -287 -96 -391 -206 -96 -103 -152 -199 -208
-359 -17 -49 -41 -98 -52 -107 -19 -16 -48 -18 -270 -18 l-249 0 0 -250 0
-250 315 0 315 0 0 185 0 185 75 0 75 0 2 -1212 3 -1213 510 0 510 0 3 256 2
256 -69 57 c-201 162 -307 458 -287 804 l6 112 -58 0 c-125 0 -229 48 -259
119 -29 68 -14 113 99 308 177 307 257 364 531 380 l117 6 0 76 c0 321 -102
589 -282 739 -122 102 -286 151 -438 132z"/>
<path d="M4684 10991 c-52 -13 -118 -49 -151 -83 -29 -30 -223 -353 -223 -371
0 -17 62 -29 174 -33 65 -3 127 -9 136 -14 29 -16 33 -45 20 -150 -17 -132 -8
-340 19 -445 35 -133 81 -218 164 -299 78 -78 145 -116 261 -149 66 -19 109
-21 568 -26 l498 -6 163 -162 c89 -90 166 -163 170 -163 5 0 7 222 5 493 -4
441 -6 498 -22 547 -30 90 -61 143 -114 192 -144 135 -367 178 -817 158 -348
-16 -367 -11 -379 96 -4 33 -14 91 -22 129 -18 78 -80 218 -94 210 -4 -3 -11
-27 -15 -55 -7 -53 -41 -189 -48 -196 -6 -6 -129 25 -139 35 -5 4 3 54 16 112
13 57 27 124 31 147 l7 42 -89 -1 c-48 -1 -102 -4 -119 -8z"/>
<path d="M10390 11594 l0 -166 168 4 c180 4 202 9 252 63 22 23 25 35 25 102
0 73 -1 75 -37 108 -50 46 -91 55 -260 55 l-148 0 0 -166z"/>
<path d="M10390 11000 l0 -200 175 0 c197 0 222 6 272 63 69 79 63 223 -13
285 -53 44 -95 52 -273 52 l-161 0 0 -200z"/>
<path d="M13360 11530 l0 -230 168 0 c141 0 173 3 207 19 74 34 105 92 105
199 0 114 -38 188 -114 223 -35 16 -66 19 -203 19 l-163 0 0 -230z"/>
<path d="M18060 11530 l0 -230 165 0 c172 0 214 8 258 48 80 72 82 265 4 351
-47 51 -88 61 -264 61 l-163 0 0 -230z"/>
<path d="M8932 9473 l-81 -188 156 -3 c86 -1 158 0 161 3 4 4 -67 179 -138
338 l-17 38 -81 -188z"/>
<path d="M12543 9473 l-80 -188 155 -3 c85 -1 157 0 160 3 4 4 -142 361 -152
373 -2 1 -39 -82 -83 -185z"/>
<path d="M9960 9535 l0 -175 113 0 c132 0 200 16 239 57 68 71 63 183 -10 245
-41 34 -109 48 -237 48 l-105 0 0 -175z"/>
</g>
</svg>
